<svg width="45" height="45" viewBox="0 0 45 45" fill="none" xmlns="http://www.w3.org/2000/svg">
<path d="M4.21875 11.6016H40.7812C41.5579 11.6016 42.1875 10.972 42.1875 10.1953V6.67969C42.1875 5.903 41.5579 5.27344 40.7812 5.27344H4.21875C3.44206 5.27344 2.8125 5.903 2.8125 6.67969V10.1953C2.8125 10.972 3.44206 11.6016 4.21875 11.6016ZM4.21875 25.6641H40.7812C41.5579 25.6641 42.1875 25.0345 42.1875 24.2578V20.7422C42.1875 19.9655 41.5579 19.3359 40.7812 19.3359H4.21875C3.44206 19.3359 2.8125 19.9655 2.8125 20.7422V24.2578C2.8125 25.0345 3.44206 25.6641 4.21875 25.6641ZM4.21875 39.7266H40.7812C41.5579 39.7266 42.1875 39.097 42.1875 38.3203V34.8047C42.1875 34.028 41.5579 33.3984 40.7812 33.3984H4.21875C3.44206 33.3984 2.8125 34.028 2.8125 34.8047V38.3203C2.8125 39.097 3.44206 39.7266 4.21875 39.7266Z" fill="#F0F0F0"/>
</svg>
